<svg width="425" height="425" viewBox="0 0 425 425" fill="none" xmlns="http://www.w3.org/2000/svg">
<path d="M0 158C0 70.739 70.739 0 158 0H267C354.261 0 425 70.739 425 158V425H158C70.739 425 0 354.261 0 267V158Z" fill="#F44873"/>
<path d="M226 362.4C203.333 362.4 182.4 358.933 163.2 352C144.267 344.8 127.733 334.667 113.6 321.6C99.7333 308.533 88.9333 293.067 81.2 275.2C73.4667 257.333 69.6 237.6 69.6 216C69.6 194.4 73.4667 174.667 81.2 156.8C88.9333 138.933 99.8667 123.467 114 110.4C128.133 97.3333 144.8 87.3333 164 80.4C183.467 73.2 204.8 69.6 228 69.6C255.733 69.6 280.4 74.2667 302 83.6C323.867 92.9333 341.867 106.267 356 123.6L295.6 176.8C286.8 166.667 277.2 159.067 266.8 154C256.667 148.667 245.333 146 232.8 146C222.4 146 212.933 147.6 204.4 150.8C196.133 154 189.067 158.667 183.2 164.8C177.333 170.933 172.8 178.267 169.6 186.8C166.4 195.333 164.8 205.067 164.8 216C164.8 226.4 166.4 236 169.6 244.8C172.8 253.333 177.333 260.667 183.2 266.8C189.067 272.933 196 277.733 204 281.2C212.267 284.4 221.467 286 231.6 286C242.267 286 252.667 284.267 262.8 280.8C272.933 277.067 283.733 270.8 295.2 262L348 326.8C330.933 338.267 311.467 347.067 289.6 353.2C267.733 359.333 246.533 362.4 226 362.4ZM266 314.8V208.4H348V326.8L266 314.8Z" fill="white"/>
</svg>
