<?xml version="1.0" encoding="UTF-8"?>
<svg version="1.1" xmlns="http://www.w3.org/2000/svg" width="225" height="225">
<path d="M0 0 C74.25 0 148.5 0 225 0 C225 74.25 225 148.5 225 225 C150.75 225 76.5 225 0 225 C0 150.75 0 76.5 0 0 Z " fill="#E5E5E5" transform="translate(0,0)"/>
<path d="M0 0 C1.02416016 0.33128906 2.04832031 0.66257812 3.10351562 1.00390625 C17.96762448 6.03775781 24.81529733 14.0241868 32.1875 27.4375 C32.620625 28.20126953 33.05375 28.96503906 33.5 29.75195312 C39.84101681 41.19122573 39.40086986 50.20232204 36.59375 62.69140625 C35.61772734 68.16991438 35.1557147 72.45909697 37.9375 77.375 C38.59341826 84.26214175 37.19055245 89.63804166 35 96.1640625 C34.06405021 98.99255782 33.33635433 101.79762305 32.625 104.6875 C31.55014526 108.37862204 30.20056664 110.4071957 27.5 113.125 C22.53481349 118.22665041 21.57935107 124.6487069 19.9375 131.375 C19.6075 132.035 19.2775 132.695 18.9375 133.375 C18.55726598 137.93780819 18.51011971 140.44900938 20.4375 144.625 C25.06369667 149.71381634 32.09496885 151.91861449 38.34716797 154.57104492 C48.1302327 158.72312961 57.80933113 163.08735408 67.40420532 167.65582275 C68.65984819 168.25240924 69.91727842 168.84525072 71.17660522 169.434021 C80.77917301 173.93255885 88.44138294 178.87888294 95.9375 186.375 C95.9375 192.975 95.9375 199.575 95.9375 206.375 C21.6875 206.375 -52.5625 206.375 -129.0625 206.375 C-128.02289518 201.17697588 -126.67381529 199.35150375 -123.0625 195.875 C-122.27214355 195.10385864 -122.27214355 195.10385864 -121.46582031 194.31713867 C-110.64320713 184.01825045 -98.67764144 175.68866633 -85.52099609 168.68994141 C-80.27782358 165.88559909 -75.07759528 163.00367481 -69.875 160.125 C-68.78703125 159.53404541 -67.6990625 158.94309082 -66.578125 158.33422852 C-57.03979668 153.14678049 -57.03979668 153.14678049 -51.0625 144.375 C-49.89172015 136.79455509 -51.9949744 130.87234308 -55.25 124.125 C-55.63736328 123.26648438 -56.02472656 122.40796875 -56.42382812 121.5234375 C-58.19198989 117.72408163 -59.87593385 114.3819289 -62.7265625 111.2890625 C-65.65866494 107.63128922 -66.37647125 104.5246374 -67.25 100 C-67.55546279 98.55457607 -67.86145059 97.10926299 -68.16796875 95.6640625 C-68.31153809 94.94879395 -68.45510742 94.23352539 -68.60302734 93.49658203 C-69.04907045 91.43701 -69.60293886 89.43357896 -70.17578125 87.40625 C-71.29984827 82.98712909 -71.20389696 78.78121432 -71.0625 74.25 C-70.9638577 68.45812768 -71.1066534 62.98507961 -72.0625 57.25 C-75.62664104 34.8692908 -75.62664104 34.8692908 -69.09765625 25.83984375 C-68.42605469 25.02644531 -67.75445312 24.21304688 -67.0625 23.375 C-66.65499512 22.85953613 -66.24749023 22.34407227 -65.82763672 21.81298828 C-53.96814525 6.81358011 -43.52006827 -0.65225955 -24.17944336 -3.39404297 C-15.35019445 -4.35730781 -8.36439207 -2.90613748 0 0 Z " fill="#BBBBBB" transform="translate(129.0625,18.625)"/>
</svg>
